<svg xmlns="http://www.w3.org/2000/svg" xmlns:xlink="http://www.w3.org/1999/xlink" width="800" zoomAndPan="magnify" viewBox="0 0 600 599.999999" height="800" preserveAspectRatio="xMidYMid meet" version="1.2"><g id="db104c930b"><rect x="0" width="600" y="0" height="599.999999" style="fill:#ffffff;fill-opacity:1;stroke:none;"/><rect x="0" width="600" y="0" height="599.999999" style="fill:#ffffff;fill-opacity:1;stroke:none;"/><rect x="0" width="600" y="0" height="599.999999" style="fill:#fefefe;fill-opacity:1;stroke:none;"/><path style=" stroke:none;fill-rule:nonzero;fill:#c19a20;fill-opacity:1;" d="M 238.460938 136.246094 L 239.265625 136.242188 C 240.136719 136.242188 241.003906 136.242188 241.875 136.246094 L 243.703125 136.242188 C 244.976562 136.242188 246.25 136.242188 247.523438 136.246094 C 249.148438 136.25 250.777344 136.246094 252.402344 136.242188 C 253.660156 136.242188 254.917969 136.242188 256.175781 136.242188 C 256.773438 136.246094 257.375 136.242188 257.972656 136.242188 C 258.8125 136.242188 259.65625 136.242188 260.496094 136.246094 L 261.234375 136.242188 C 263.296875 136.257812 265.328125 136.53125 267.210938 137.410156 C 270.214844 139.457031 271.648438 142.09375 273.199219 145.308594 C 274.398438 147.832031 275.566406 150.367188 276.738281 152.90625 C 277.699219 154.988281 278.671875 157.058594 279.707031 159.105469 C 282.222656 164.0625 284.566406 169.101562 286.894531 174.144531 C 288.144531 176.84375 289.40625 179.53125 290.75 182.179688 C 291.652344 183.953125 292.496094 185.75 293.335938 187.554688 C 294.066406 189.109375 294.824219 190.65625 295.605469 192.1875 C 296.925781 194.789062 298.128906 197.441406 299.324219 200.105469 C 300.332031 202.339844 301.359375 204.589844 302.667969 206.667969 L 303.332031 207 L 303.457031 206.273438 C 303.667969 205.332031 303.960938 204.53125 304.339844 203.648438 L 304.761719 202.65625 L 305.222656 201.585938 L 305.703125 200.464844 C 306.128906 199.464844 306.554688 198.46875 306.984375 197.472656 C 307.429688 196.4375 307.871094 195.402344 308.3125 194.367188 C 310.417969 189.449219 312.535156 184.539062 314.667969 179.632812 C 315.773438 177.089844 316.867188 174.546875 317.957031 172 L 318.257812 171.296875 C 319.714844 167.902344 321.160156 164.507812 322.605469 161.109375 L 323.121094 159.902344 C 323.964844 157.917969 324.8125 155.929688 325.65625 153.945312 C 326.414062 152.164062 327.171875 150.382812 327.933594 148.605469 C 328.300781 147.738281 328.667969 146.871094 329.035156 146.003906 L 329.648438 144.570312 L 330.160156 143.367188 C 331.097656 141.453125 332.355469 140.089844 334.027344 138.796875 C 336.050781 137.5 337.984375 137.445312 340.332031 137.332031 C 342.945312 137.238281 345.554688 137.191406 348.167969 137.144531 L 349.277344 137.125 C 351.503906 137.085938 353.730469 137.046875 355.953125 137.015625 C 356.628906 137.003906 357.304688 136.996094 357.976562 136.984375 C 359.695312 136.957031 361.414062 136.933594 363.128906 136.921875 C 363.636719 136.917969 364.140625 136.914062 364.648438 136.90625 C 365.34375 136.894531 366.039062 136.890625 366.734375 136.890625 L 367.898438 136.882812 C 369.652344 137.070312 370.96875 137.742188 372.394531 138.75 C 374.121094 140.4375 374.820312 142.316406 375.601562 144.550781 C 376.09375 145.925781 376.617188 147.285156 377.144531 148.644531 L 377.425781 149.367188 C 378.6875 152.609375 380.054688 155.804688 381.433594 158.996094 C 383 162.625 384.527344 166.261719 385.980469 169.9375 C 387.800781 174.542969 389.675781 179.128906 391.605469 183.6875 C 394.414062 190.320312 397.128906 196.992188 399.832031 203.667969 C 401.308594 207.308594 402.796875 210.949219 404.292969 214.582031 L 404.582031 215.289062 C 405.703125 218.011719 406.832031 220.730469 407.96875 223.445312 L 409.589844 227.328125 C 411.011719 230.722656 412.398438 234.125 413.707031 237.5625 C 414.378906 239.3125 415.121094 241.011719 415.902344 242.710938 C 416.65625 244.386719 417.335938 246.089844 418.019531 247.792969 L 419.234375 250.789062 C 420.085938 252.886719 420.957031 254.976562 421.824219 257.066406 C 423.117188 260.167969 424.386719 263.277344 425.589844 266.410156 C 426.441406 268.621094 427.351562 270.804688 428.277344 272.984375 C 429.835938 276.648438 431.34375 280.332031 432.804688 284.035156 C 433.566406 285.957031 434.378906 287.859375 435.246094 289.734375 C 435.996094 291.402344 436.671875 293.097656 437.355469 294.792969 L 438.574219 297.804688 C 439.484375 300.039062 440.40625 302.269531 441.332031 304.5 C 443.996094 310.917969 446.621094 317.351562 449.1875 323.808594 C 450.820312 327.929688 450.820312 327.929688 452.601562 331.984375 C 454.128906 335.320312 454.128906 335.320312 454.1875 336.855469 C 454 338 454 338 453.605469 338.957031 C 453 339.667969 453 339.667969 452.28125 340.039062 C 451.117188 340.398438 450.121094 340.421875 448.902344 340.429688 L 448.179688 340.4375 C 447.390625 340.445312 446.605469 340.445312 445.820312 340.445312 L 444.167969 340.453125 C 443.015625 340.457031 441.863281 340.457031 440.710938 340.457031 C 439.238281 340.457031 437.769531 340.464844 436.300781 340.476562 C 435.164062 340.484375 434.027344 340.484375 432.890625 340.484375 C 432.347656 340.488281 431.804688 340.488281 431.265625 340.496094 C 428.59375 340.519531 426.148438 340.523438 423.667969 339.386719 C 422.125 338.492188 420.824219 337.492188 419.902344 335.941406 C 418.898438 333.871094 417.992188 331.777344 417.132812 329.644531 L 416.703125 328.582031 C 416.238281 327.4375 415.773438 326.292969 415.3125 325.144531 L 414.328125 322.722656 C 413.824219 321.476562 413.320312 320.234375 412.816406 318.992188 C 411.339844 315.347656 409.855469 311.703125 408.367188 308.0625 C 407.816406 306.71875 407.269531 305.375 406.722656 304.035156 L 405.488281 301.015625 C 404.242188 297.960938 402.996094 294.910156 401.75 291.855469 L 399.667969 286.75 L 398.832031 284.707031 L 398.417969 283.6875 L 396.75 279.605469 L 390.101562 263.3125 C 386.90625 255.496094 383.71875 247.679688 380.535156 239.859375 C 378.359375 234.515625 376.179688 229.175781 374 223.832031 C 371.664062 218.113281 369.332031 212.390625 367 206.667969 C 364.011719 199.332031 361.023438 191.996094 358.03125 184.664062 L 357.660156 183.761719 C 356.878906 181.839844 356.078125 179.925781 355.261719 178.015625 C 355 177.332031 355 177.332031 355 176.667969 L 354 176.667969 L 353.773438 177.445312 C 353.179688 179.097656 352.414062 180.648438 351.644531 182.230469 L 350.648438 184.300781 L 350.144531 185.339844 C 349.464844 186.753906 348.792969 188.167969 348.125 189.582031 L 346.667969 192.667969 L 345.207031 195.75 L 344.835938 196.535156 C 344.164062 197.960938 343.484375 199.378906 342.804688 200.796875 C 340.988281 204.574219 339.203125 208.359375 337.46875 212.171875 C 336.480469 214.335938 335.441406 216.472656 334.371094 218.597656 C 333.226562 220.882812 332.097656 223.175781 330.980469 225.476562 C 330.757812 225.9375 330.535156 226.398438 330.308594 226.859375 C 328.96875 229.597656 327.671875 232.351562 326.472656 235.160156 C 325.832031 236.652344 325.132812 238.113281 324.394531 239.5625 L 324.023438 240.296875 L 323.722656 240.894531 C 322.316406 243.679688 321 246.511719 319.667969 249.332031 L 317.820312 253.238281 C 317.152344 254.648438 316.480469 256.054688 315.804688 257.460938 C 314.152344 260.898438 312.527344 264.347656 310.9375 267.8125 C 309.464844 271.019531 307.949219 274.195312 306.332031 277.332031 L 305.820312 278.386719 C 304.757812 280.5 303.648438 282.015625 301.667969 283.332031 C 298.671875 284.878906 295.59375 284.890625 292.3125 284.917969 C 291.773438 284.925781 291.230469 284.933594 290.691406 284.945312 C 289.296875 284.964844 287.898438 284.980469 286.503906 284.992188 C 285.40625 285.003906 284.308594 285.019531 283.207031 285.039062 C 282.171875 285.054688 281.132812 285.066406 280.097656 285.078125 C 279.605469 285.082031 279.113281 285.085938 278.625 285.09375 C 277.941406 285.105469 277.257812 285.109375 276.574219 285.109375 L 275.40625 285.117188 C 274.183594 284.984375 273.382812 284.625 272.332031 284 C 271.875 283.4375 271.875 283.4375 271.667969 282.667969 C 271.453125 280.539062 271.929688 279.101562 272.785156 277.160156 L 273.292969 276.042969 C 273.5625 275.429688 273.832031 274.820312 274.101562 274.207031 C 274.296875 273.761719 274.492188 273.316406 274.691406 272.871094 C 275.523438 270.992188 276.34375 269.101562 277.152344 267.210938 L 277.539062 266.304688 C 278.058594 265.085938 278.578125 263.867188 279.097656 262.644531 C 281.550781 256.894531 281.550781 256.894531 282.804688 254.160156 L 283.289062 253.089844 C 283.570312 252.472656 283.855469 251.859375 284.148438 251.25 C 284.71875 250 285.101562 249 284.980469 247.617188 C 284.660156 246.304688 284.203125 245.199219 283.5625 244.019531 C 283.320312 243.554688 283.078125 243.089844 282.835938 242.625 L 282.433594 241.851562 C 281.589844 240.195312 280.800781 238.511719 280 236.832031 C 278.792969 234.308594 277.574219 231.792969 276.3125 229.296875 C 275.410156 227.511719 274.558594 225.703125 273.707031 223.894531 C 272.664062 221.671875 271.558594 219.476562 270.394531 217.3125 C 268.878906 214.488281 267.53125 211.589844 266.195312 208.675781 C 265.03125 206.136719 263.828125 203.644531 262.484375 201.195312 C 261.167969 198.757812 260.035156 196.234375 258.882812 193.714844 C 257.6875 191.101562 256.441406 188.539062 255.0625 186.019531 C 253.265625 182.691406 251.703125 179.191406 250.332031 175.667969 L 249.332031 175.667969 L 249.058594 176.535156 C 248.671875 177.648438 248.222656 178.699219 247.734375 179.769531 L 247.167969 181.007812 L 246.871094 181.660156 C 245.179688 185.351562 243.527344 189.0625 241.917969 192.792969 C 240.214844 196.734375 238.5 200.671875 236.769531 204.605469 L 236.386719 205.476562 C 235.609375 207.246094 234.832031 209.015625 234.054688 210.785156 C 232.917969 213.371094 231.78125 215.957031 230.644531 218.542969 L 230.269531 219.394531 C 228.191406 224.136719 226.117188 228.882812 224.050781 233.628906 C 222.910156 236.25 221.765625 238.867188 220.621094 241.484375 L 220.289062 242.242188 C 219.769531 243.421875 219.253906 244.601562 218.734375 245.78125 L 218.1875 247.027344 L 217.710938 248.113281 C 217.078125 249.605469 216.886719 250.707031 217 252.332031 C 217.390625 253.292969 217.390625 253.292969 218 254 C 218.957031 254.320312 219.566406 254.378906 220.5625 254.382812 L 221.535156 254.386719 L 222.601562 254.390625 L 223.722656 254.398438 C 224.53125 254.402344 225.335938 254.40625 226.144531 254.410156 C 227.421875 254.414062 228.695312 254.421875 229.972656 254.433594 C 233.601562 254.453125 237.230469 254.476562 240.859375 254.492188 C 243.078125 254.503906 245.296875 254.515625 247.515625 254.53125 C 248.363281 254.539062 249.207031 254.542969 250.054688 254.542969 C 251.238281 254.546875 252.421875 254.558594 253.601562 254.566406 L 254.664062 254.566406 C 256.339844 254.582031 257.777344 254.628906 259.332031 255.332031 C 260.144531 256.019531 260.144531 256.019531 260.667969 257 C 260.660156 259.878906 259.4375 262.222656 258.230469 264.769531 C 257.800781 265.691406 257.375 266.609375 256.949219 267.53125 L 256.621094 268.234375 C 255.902344 269.796875 255.21875 271.375 254.574219 272.96875 L 254.3125 273.605469 C 253.90625 274.59375 253.507812 275.585938 253.117188 276.578125 C 252.226562 278.742188 251.164062 280.476562 249.648438 282.257812 C 247.894531 283.585938 245.9375 284.445312 243.769531 284.824219 C 242.84375 284.898438 241.933594 284.917969 241.007812 284.921875 L 239.914062 284.945312 C 238.855469 284.964844 237.792969 284.980469 236.734375 284.992188 C 235.367188 285.007812 234.003906 285.035156 232.640625 285.0625 L 230.820312 285.097656 L 229.882812 285.113281 C 228.292969 285.144531 226.699219 285.171875 225.109375 285.203125 L 224.136719 285.21875 C 222.488281 285.25 220.839844 285.277344 219.191406 285.300781 C 217.570312 285.324219 215.945312 285.351562 214.324219 285.386719 C 213.714844 285.398438 213.105469 285.40625 212.492188 285.414062 C 207.761719 285.4375 207.761719 285.4375 203.332031 287 L 202.667969 287.667969 L 201.667969 287.667969 L 201.398438 288.386719 C 200.984375 289.371094 200.484375 290.230469 199.925781 291.140625 C 198.726562 293.175781 197.734375 295.261719 196.78125 297.421875 C 196.488281 298.089844 196.191406 298.757812 195.894531 299.421875 C 195.472656 300.367188 195.050781 301.3125 194.628906 302.257812 C 193.628906 304.492188 192.621094 306.726562 191.605469 308.957031 L 191.300781 309.628906 C 189.164062 314.332031 186.988281 319.023438 184.8125 323.710938 C 182.667969 328.289062 182.667969 328.289062 180.609375 332.910156 C 179.78125 334.808594 178.734375 336.066406 177.191406 337.4375 C 175.664062 338.441406 174.164062 338.945312 172.359375 339.144531 C 171.902344 339.15625 171.445312 339.167969 170.984375 339.171875 L 170.21875 339.1875 C 169.394531 339.207031 168.574219 339.21875 167.75 339.230469 L 166.023438 339.261719 C 164.535156 339.285156 163.046875 339.304688 161.558594 339.324219 C 160.679688 339.332031 159.800781 339.347656 158.921875 339.359375 C 157.542969 339.382812 156.164062 339.398438 154.78125 339.410156 C 154.265625 339.414062 153.746094 339.421875 153.230469 339.429688 C 152.507812 339.4375 151.785156 339.441406 151.0625 339.441406 L 149.828125 339.453125 C 148.449219 339.3125 147.570312 338.953125 146.332031 338.332031 C 145.6875 337.769531 145.6875 337.769531 145.332031 337 C 145.132812 334.703125 145.695312 333.144531 146.640625 331.070312 L 147.050781 330.132812 C 147.496094 329.128906 147.945312 328.125 148.394531 327.125 C 148.707031 326.425781 149.015625 325.726562 149.324219 325.027344 C 149.9375 323.640625 150.550781 322.257812 151.167969 320.875 C 152.199219 318.558594 153.207031 316.226562 154.207031 313.894531 C 156.011719 309.71875 157.847656 305.554688 159.679688 301.390625 C 161.574219 297.082031 163.445312 292.761719 165.292969 288.433594 C 166.726562 285.078125 168.175781 281.730469 169.652344 278.390625 C 170.769531 275.855469 171.878906 273.316406 172.980469 270.769531 C 174.964844 266.183594 176.953125 261.597656 178.949219 257.015625 L 181.128906 252.003906 L 184.917969 243.285156 L 186.160156 240.429688 C 187.429688 237.511719 188.699219 234.589844 189.96875 231.671875 C 192.671875 225.453125 195.375 219.234375 198.09375 213.019531 C 200.007812 208.644531 201.914062 204.265625 203.808594 199.882812 C 208.527344 188.972656 213.253906 178.066406 218.027344 167.183594 C 219.492188 163.832031 220.953125 160.476562 222.402344 157.117188 L 223.433594 154.734375 C 224.40625 152.484375 225.378906 150.230469 226.339844 147.976562 L 226.792969 146.925781 C 227.054688 146.3125 227.316406 145.699219 227.578125 145.085938 C 230.066406 139.300781 230.066406 139.300781 232.300781 137.375 C 234.226562 136.34375 236.324219 136.234375 238.460938 136.246094 "/><path style=" stroke:none;fill-rule:nonzero;fill:#1c702e;fill-opacity:1;" d="M 367.332031 137 C 370.023438 137.191406 370.023438 137.191406 371.152344 137.710938 C 372.957031 139.152344 374.109375 140.628906 374.980469 142.773438 C 375.199219 143.367188 375.410156 143.964844 375.613281 144.5625 C 376.09375 145.933594 376.617188 147.289062 377.144531 148.644531 L 377.425781 149.367188 C 378.6875 152.609375 380.054688 155.804688 381.433594 158.996094 C 383 162.625 384.527344 166.261719 385.980469 169.9375 C 387.800781 174.542969 389.675781 179.125 391.605469 183.6875 C 394.414062 190.320312 397.128906 196.992188 399.832031 203.667969 C 401.308594 207.308594 402.796875 210.949219 404.292969 214.582031 L 404.582031 215.289062 C 405.703125 218.011719 406.832031 220.730469 407.96875 223.445312 L 409.589844 227.328125 C 411.011719 230.722656 412.398438 234.125 413.707031 237.5625 C 414.378906 239.3125 415.121094 241.011719 415.902344 242.710938 C 416.65625 244.386719 417.335938 246.089844 418.019531 247.792969 L 418.984375 250.171875 L 419.234375 250.789062 C 420.085938 252.886719 420.957031 254.976562 421.824219 257.066406 C 423.117188 260.167969 424.386719 263.277344 425.589844 266.410156 C 426.441406 268.621094 427.351562 270.804688 428.277344 272.984375 C 429.835938 276.648438 431.34375 280.332031 432.804688 284.035156 C 433.566406 285.957031 434.378906 287.859375 435.246094 289.734375 C 435.996094 291.402344 436.671875 293.097656 437.355469 294.792969 C 437.675781 295.589844 438 296.386719 438.324219 297.183594 L 438.574219 297.804688 C 439.484375 300.039062 440.40625 302.269531 441.332031 304.5 C 443.996094 310.917969 446.621094 317.351562 449.1875 323.808594 C 450.820312 327.929688 450.820312 327.929688 452.601562 331.984375 C 454.128906 335.320312 454.128906 335.320312 454.1875 336.855469 C 454 338 454 338 453.605469 338.957031 C 453 339.667969 453 339.667969 452.28125 340.039062 C 451.117188 340.398438 450.121094 340.421875 448.902344 340.429688 L 448.179688 340.4375 C 447.390625 340.445312 446.605469 340.445312 445.820312 340.445312 L 444.167969 340.453125 C 443.015625 340.457031 441.863281 340.457031 440.710938 340.457031 C 439.238281 340.457031 437.769531 340.464844 436.300781 340.476562 C 435.164062 340.484375 434.027344 340.484375 432.890625 340.484375 C 432.347656 340.488281 431.804688 340.488281 431.265625 340.496094 C 428.59375 340.519531 426.148438 340.523438 423.667969 339.386719 C 422.125 338.492188 420.824219 337.492188 419.902344 335.941406 C 418.898438 333.871094 417.992188 331.777344 417.132812 329.644531 L 416.703125 328.582031 C 416.238281 327.4375 415.773438 326.292969 415.3125 325.144531 L 414.328125 322.722656 C 413.824219 321.476562 413.320312 320.234375 412.816406 318.992188 C 411.339844 315.347656 409.855469 311.703125 408.367188 308.0625 C 407.816406 306.71875 407.269531 305.375 406.722656 304.035156 L 405.488281 301.015625 C 404.242188 297.960938 402.996094 294.910156 401.75 291.855469 L 399.667969 286.75 L 398.832031 284.707031 L 398.417969 283.6875 L 396.75 279.605469 L 390.101562 263.3125 C 386.90625 255.496094 383.71875 247.675781 380.535156 239.859375 C 378.359375 234.515625 376.179688 229.175781 374 223.832031 C 371.664062 218.113281 369.332031 212.390625 367 206.667969 C 364.011719 199.332031 361.023438 191.996094 358.03125 184.664062 L 357.660156 183.761719 C 356.878906 181.839844 356.078125 179.925781 355.261719 178.015625 C 355 177.332031 355 177.332031 355 176.667969 L 354.332031 176.667969 C 355.019531 173.578125 355.992188 170.621094 357.03125 167.636719 C 357.519531 166.238281 358.003906 164.835938 358.484375 163.433594 L 358.785156 162.566406 C 359.78125 159.679688 360.746094 156.789062 361.707031 153.894531 L 361.953125 153.160156 C 362.359375 151.9375 362.765625 150.714844 363.171875 149.496094 C 363.945312 147.160156 364.722656 144.828125 365.503906 142.492188 L 366.671875 138.984375 Z M 367.332031 137 "/><path style=" stroke:none;fill-rule:nonzero;fill:#6dbe2c;fill-opacity:1;" d="M 367.332031 137 C 367.097656 138.898438 366.5 140.632812 365.890625 142.433594 L 365.550781 143.457031 C 365.179688 144.5625 364.808594 145.667969 364.4375 146.769531 L 363.667969 149.066406 C 361.671875 155.011719 359.65625 160.953125 357.617188 166.882812 C 356.941406 168.851562 356.273438 170.824219 355.617188 172.800781 C 355.4375 173.355469 355.253906 173.914062 355.078125 174.46875 C 354.5 176.285156 353.769531 177.976562 352.9375 179.6875 L 352.539062 180.519531 C 351.59375 182.484375 350.613281 184.4375 349.625 186.382812 C 348.863281 187.902344 348.167969 189.4375 347.5 191 C 346.75 192.753906 345.945312 194.484375 345.082031 196.1875 C 342.414062 201.453125 339.914062 206.800781 337.46875 212.171875 C 336.480469 214.335938 335.441406 216.472656 334.371094 218.597656 C 333.226562 220.882812 332.097656 223.175781 330.980469 225.476562 C 330.757812 225.9375 330.535156 226.398438 330.308594 226.859375 C 328.96875 229.597656 327.671875 232.351562 326.472656 235.160156 C 325.832031 236.652344 325.132812 238.113281 324.394531 239.5625 L 324.023438 240.296875 L 323.722656 240.894531 C 322.316406 243.679688 321 246.511719 319.667969 249.332031 L 317.820312 253.238281 C 317.152344 254.648438 316.480469 256.054688 315.804688 257.460938 C 314.152344 260.898438 312.527344 264.347656 310.9375 267.8125 C 309.464844 271.019531 307.949219 274.195312 306.332031 277.332031 L 305.820312 278.386719 C 304.757812 280.5 303.648438 282.015625 301.667969 283.332031 C 298.671875 284.878906 295.59375 284.890625 292.3125 284.917969 C 291.773438 284.925781 291.230469 284.933594 290.691406 284.945312 C 289.296875 284.964844 287.898438 284.980469 286.503906 284.992188 C 285.40625 285.003906 284.308594 285.019531 283.207031 285.039062 C 282.171875 285.054688 281.132812 285.066406 280.09375 285.078125 C 279.605469 285.082031 279.113281 285.085938 278.625 285.09375 C 277.941406 285.105469 277.257812 285.109375 276.574219 285.109375 L 275.40625 285.117188 C 274.183594 284.984375 273.382812 284.625 272.332031 284 C 271.875 283.4375 271.875 283.4375 271.667969 282.667969 C 271.453125 280.539062 271.929688 279.101562 272.785156 277.160156 L 273.292969 276.042969 L 274.109375 274.1875 C 274.410156 273.503906 274.710938 272.824219 275.015625 272.140625 C 276.089844 269.71875 277.121094 267.28125 278.164062 264.84375 C 278.808594 263.335938 279.453125 261.832031 280.097656 260.324219 L 280.492188 259.402344 C 281.378906 257.335938 282.265625 255.273438 283.152344 253.207031 C 286 246.566406 288.84375 239.921875 291.675781 233.269531 C 293.125 229.875 294.5625 226.480469 295.910156 223.042969 C 296.339844 221.984375 296.808594 220.949219 297.292969 219.917969 C 299.273438 215.695312 301.035156 211.367188 302.667969 207 L 303.332031 207 L 303.457031 206.273438 C 303.667969 205.332031 303.960938 204.53125 304.339844 203.648438 L 304.761719 202.65625 L 305.222656 201.585938 L 305.703125 200.464844 C 306.128906 199.464844 306.554688 198.46875 306.984375 197.472656 C 307.429688 196.4375 307.871094 195.402344 308.3125 194.367188 C 310.417969 189.449219 312.535156 184.539062 314.667969 179.632812 C 315.773438 177.089844 316.867188 174.546875 317.957031 172 L 318.257812 171.296875 C 319.714844 167.902344 321.160156 164.507812 322.605469 161.109375 L 323.121094 159.902344 C 323.964844 157.917969 324.8125 155.929688 325.65625 153.945312 C 326.414062 152.164062 327.171875 150.382812 327.933594 148.605469 C 328.300781 147.738281 328.667969 146.871094 329.035156 146.003906 L 329.648438 144.570312 L 330.160156 143.367188 C 331.097656 141.453125 332.355469 140.089844 334.027344 138.796875 C 336.050781 137.5 337.984375 137.445312 340.332031 137.332031 C 342.976562 137.238281 345.625 137.195312 348.269531 137.144531 L 349.386719 137.125 C 355.367188 137.007812 361.347656 136.953125 367.332031 137 "/><path style=" stroke:none;fill-rule:nonzero;fill:#fcc301;fill-opacity:1;" d="M 238.347656 136.285156 L 239.152344 136.28125 C 240.027344 136.277344 240.902344 136.277344 241.777344 136.277344 L 243.609375 136.273438 C 244.886719 136.273438 246.167969 136.269531 247.449219 136.273438 C 249.082031 136.273438 250.71875 136.265625 252.351562 136.261719 C 253.613281 136.257812 254.875 136.257812 256.136719 136.257812 C 256.738281 136.257812 257.339844 136.253906 257.941406 136.253906 C 258.789062 136.25 259.632812 136.25 260.480469 136.253906 C 260.726562 136.25 260.96875 136.25 261.222656 136.246094 C 263.292969 136.257812 265.324219 136.53125 267.210938 137.410156 C 270.214844 139.457031 271.648438 142.09375 273.199219 145.308594 C 274.398438 147.832031 275.566406 150.367188 276.738281 152.90625 C 277.699219 154.988281 278.671875 157.058594 279.707031 159.105469 C 282.222656 164.0625 284.566406 169.101562 286.894531 174.144531 C 288.144531 176.84375 289.40625 179.53125 290.75 182.179688 C 291.652344 183.953125 292.496094 185.75 293.335938 187.554688 C 294.066406 189.109375 294.824219 190.65625 295.605469 192.1875 C 296.925781 194.789062 298.128906 197.441406 299.324219 200.105469 C 300.074219 201.769531 300.867188 203.355469 301.800781 204.929688 C 302.398438 206.027344 302.660156 206.570312 302.722656 207.832031 C 302.167969 209.492188 301.492188 211.074219 300.769531 212.667969 C 300.464844 213.351562 300.160156 214.039062 299.855469 214.726562 L 299.40625 215.734375 C 298.730469 217.277344 298.121094 218.84375 297.515625 220.417969 C 297.074219 221.527344 296.570312 222.601562 296.066406 223.683594 C 295.085938 225.792969 294.171875 227.929688 293.28125 230.078125 C 292.820312 231.1875 292.359375 232.300781 291.894531 233.410156 L 291.597656 234.117188 C 290.382812 237.023438 289.136719 239.917969 287.894531 242.8125 L 287.554688 243.605469 C 286.925781 245.070312 286.296875 246.535156 285.667969 248 C 284.960938 247.292969 284.671875 246.734375 284.25 245.835938 L 283.808594 244.90625 L 283.332031 243.894531 L 282.839844 242.855469 C 282.335938 241.792969 281.835938 240.730469 281.332031 239.667969 C 280.757812 238.449219 280.183594 237.234375 279.605469 236.019531 L 279.1875 235.140625 C 278.261719 233.203125 277.316406 231.277344 276.34375 229.363281 C 275.433594 227.554688 274.570312 225.726562 273.707031 223.894531 C 272.664062 221.671875 271.558594 219.476562 270.394531 217.3125 C 268.878906 214.488281 267.53125 211.589844 266.195312 208.675781 C 265.03125 206.136719 263.828125 203.644531 262.484375 201.195312 C 261.167969 198.757812 260.035156 196.234375 258.882812 193.714844 C 257.6875 191.101562 256.441406 188.539062 255.0625 186.019531 C 253.382812 182.90625 251.863281 179.640625 250.625 176.328125 L 250.332031 175.667969 L 249.667969 175.332031 C 249.3125 174.761719 249.3125 174.761719 248.921875 174.019531 C 247.992188 172.296875 246.957031 170.664062 245.894531 169.019531 C 243.445312 165.195312 241.0625 161.328125 238.6875 157.453125 C 237.757812 155.9375 236.828125 154.421875 235.894531 152.910156 C 235.441406 152.171875 234.988281 151.4375 234.539062 150.699219 C 233.570312 149.117188 232.59375 147.546875 231.578125 145.996094 L 231.09375 145.25 C 230.808594 144.808594 230.515625 144.371094 230.21875 143.933594 C 229.84375 143.359375 229.84375 143.359375 229.332031 142.332031 C 229.367188 141.351562 229.582031 140.820312 230.054688 139.96875 C 231.222656 138.398438 232.210938 137.480469 234 136.667969 C 235.441406 136.285156 236.867188 136.285156 238.347656 136.285156 "/><path style=" stroke:none;fill-rule:nonzero;fill:#1c702e;fill-opacity:1;" d="M 499.894531 373.894531 C 502.992188 375.429688 505.378906 377.457031 507.375 380.277344 C 508.910156 382.871094 509.6875 385.84375 509.75 388.855469 C 509.710938 391.875 508.964844 394.871094 507.523438 397.53125 C 505.960938 399.925781 503.859375 402.269531 501.332031 403.667969 C 497.140625 405.421875 493.496094 405.9375 489 405.667969 C 485.816406 405.238281 482.867188 403.96875 480.238281 402.136719 C 478.210938 400.480469 476.628906 398.421875 475.570312 396.03125 C 474.371094 392.828125 474.042969 389.742188 474.332031 386.332031 C 474.882812 383.324219 476.101562 380.726562 478 378.332031 C 480.417969 375.679688 483.214844 374.074219 486.582031 372.894531 C 491.113281 371.9375 495.554688 372.144531 499.894531 373.894531 "/><path style=" stroke:none;fill-rule:nonzero;fill:#c19a20;fill-opacity:1;" d="M 98.332031 373 C 99.285156 372.910156 100.230469 372.84375 101.1875 372.792969 L 101.996094 372.707031 C 102.871094 372.671875 103.5 372.714844 104.332031 373 C 105.347656 373.96875 105.980469 375.121094 106.667969 376.332031 L 107.320312 377.417969 C 108.03125 378.601562 108.726562 379.800781 109.417969 381 C 109.914062 381.855469 110.410156 382.714844 110.910156 383.570312 L 111.277344 384.203125 C 112.476562 386.257812 113.71875 388.285156 114.984375 390.296875 C 115.332031 390.859375 115.671875 391.425781 116 392 L 116 392.667969 C 116.953125 391.820312 117.515625 390.859375 118.148438 389.757812 L 118.484375 389.183594 C 118.71875 388.773438 118.957031 388.363281 119.191406 387.953125 C 119.820312 386.863281 120.453125 385.777344 121.085938 384.691406 L 121.480469 384.019531 C 122.84375 381.6875 124.25 379.382812 125.667969 377.082031 L 126.363281 375.953125 C 127.953125 373.378906 127.953125 373.378906 128.332031 373 C 128.78125 372.972656 129.230469 372.960938 129.679688 372.96875 L 130.496094 372.972656 L 131.355469 372.980469 L 132.214844 372.984375 C 132.921875 372.988281 133.628906 372.992188 134.332031 373 C 134.378906 375.75 134.421875 378.5 134.464844 381.253906 C 134.484375 382.53125 134.503906 383.808594 134.523438 385.085938 C 134.574219 388.265625 134.621094 391.445312 134.660156 394.625 L 134.675781 396.042969 C 134.695312 397.59375 134.707031 399.144531 134.71875 400.691406 L 134.734375 401.886719 L 134.738281 402.972656 L 134.746094 403.921875 L 134.667969 404.667969 L 134 405.332031 C 133.382812 405.417969 133.382812 405.417969 132.644531 405.421875 L 131.839844 405.425781 L 131 405.417969 L 130.160156 405.425781 L 129.355469 405.421875 L 128.617188 405.417969 L 128 405.332031 L 127.332031 404.667969 C 127.253906 403.902344 127.253906 403.902344 127.257812 402.9375 L 127.257812 401.847656 L 127.269531 400.664062 L 127.269531 399.457031 C 127.273438 398.179688 127.285156 396.902344 127.292969 395.625 C 127.296875 394.761719 127.296875 393.898438 127.300781 393.03125 C 127.308594 390.910156 127.320312 388.789062 127.332031 386.667969 L 126.667969 386.667969 L 126.546875 387.242188 C 126.316406 388.0625 125.988281 388.691406 125.566406 389.425781 L 125.085938 390.269531 L 124.5625 391.167969 L 124.027344 392.09375 C 123.464844 393.0625 122.902344 394.03125 122.332031 395 L 121.761719 395.976562 C 121.21875 396.902344 120.671875 397.828125 120.125 398.75 L 119.613281 399.621094 L 119.132812 400.421875 C 118.996094 400.65625 118.855469 400.886719 118.710938 401.128906 C 118.332031 401.667969 118.332031 401.667969 117.667969 402 C 115.75 402.15625 115.75 402.15625 115 402 C 114.027344 401.132812 113.355469 400.246094 112.707031 399.121094 L 112.175781 398.210938 L 111.625 397.25 C 110.125 394.667969 108.601562 392.113281 106.964844 389.613281 C 106.628906 389.085938 106.3125 388.542969 106 388 L 106 387 L 105.332031 387 L 105.332031 405 C 104.191406 405.570312 102.921875 405.410156 101.667969 405.417969 L 100.824219 405.4375 L 100.019531 405.441406 L 99.28125 405.453125 L 98.667969 405.332031 C 98 404.332031 98 404.332031 97.917969 403.082031 C 97.914062 402.550781 97.914062 402.019531 97.917969 401.488281 L 97.917969 400.605469 C 97.914062 399.644531 97.917969 398.683594 97.921875 397.71875 L 97.921875 395.714844 C 97.925781 394.316406 97.925781 392.914062 97.929688 391.515625 C 97.9375 389.71875 97.9375 387.921875 97.9375 386.125 C 97.9375 384.746094 97.941406 383.367188 97.941406 381.988281 C 97.941406 381.324219 97.945312 380.660156 97.945312 380 C 97.945312 379.074219 97.949219 378.148438 97.953125 377.222656 L 97.949219 376.390625 C 97.957031 375.207031 98.015625 374.140625 98.332031 373 "/><path style=" stroke:none;fill-rule:nonzero;fill:#1c702e;fill-opacity:1;" d="M 316.332031 373 C 318.109375 372.585938 319.765625 372.394531 321.574219 372.710938 C 322.332031 373 322.332031 373 322.9375 373.515625 C 324.222656 375.125 325.113281 376.988281 326.042969 378.816406 C 327.128906 380.917969 328.390625 382.921875 329.609375 384.949219 C 330.300781 386.101562 330.984375 387.257812 331.667969 388.417969 C 332.113281 389.167969 332.554688 389.917969 333 390.667969 L 333.542969 391.621094 L 334 392.332031 L 334.667969 392.667969 L 334.898438 391.839844 C 335.433594 390.398438 336.171875 389.179688 336.980469 387.875 C 337.335938 387.289062 337.691406 386.707031 338.046875 386.121094 L 338.652344 385.125 C 339.441406 383.824219 340.21875 382.511719 340.996094 381.203125 L 341.429688 380.46875 C 342.007812 379.492188 342.585938 378.515625 343.164062 377.535156 C 343.570312 376.847656 343.980469 376.15625 344.390625 375.464844 L 344.765625 374.828125 C 345.628906 373.371094 345.628906 373.371094 346 373 C 346.441406 372.96875 346.890625 372.957031 347.332031 372.957031 L 348.144531 372.953125 L 349 372.957031 L 349.855469 372.953125 L 350.667969 372.957031 L 351.417969 372.957031 L 352 373 L 352.332031 373.332031 C 352.363281 374.316406 352.375 375.292969 352.371094 376.277344 L 352.371094 377.214844 C 352.371094 378.242188 352.367188 379.265625 352.367188 380.292969 L 352.363281 382.421875 C 352.363281 384.292969 352.359375 386.164062 352.355469 388.035156 C 352.351562 389.945312 352.351562 391.851562 352.351562 393.757812 C 352.347656 397.507812 352.339844 401.253906 352.332031 405 C 351.230469 405.066406 350.125 405.125 349.019531 405.1875 L 348.066406 405.246094 L 347.15625 405.292969 L 346.316406 405.339844 L 345.667969 405.332031 L 345.332031 405 C 345.292969 404.425781 345.273438 403.855469 345.265625 403.28125 L 345.246094 402.167969 L 345.226562 400.957031 L 345.207031 399.726562 C 345.183594 398.421875 345.164062 397.117188 345.144531 395.8125 L 345.101562 393.167969 C 345.066406 391 345.03125 388.832031 345 386.667969 L 344.53125 387.46875 C 339.347656 396.371094 339.347656 396.371094 337.355469 399.582031 L 336.957031 400.230469 C 336.648438 400.71875 336.328125 401.195312 336 401.667969 C 335.332031 402 335.332031 402 334.230469 402.125 L 333 402 C 331.40625 400.691406 330.480469 399.039062 329.457031 397.269531 L 328.410156 395.488281 L 327.871094 394.574219 C 327.34375 393.6875 326.804688 392.804688 326.257812 391.929688 L 325.746094 391.105469 C 325.421875 390.585938 325.09375 390.066406 324.769531 389.550781 L 324.328125 388.84375 L 323.941406 388.226562 C 323.667969 387.667969 323.667969 387.667969 323.667969 386.667969 L 323 386.667969 L 323 405 L 316.332031 405 L 316 404.667969 C 315.964844 403.695312 315.953125 402.730469 315.957031 401.757812 L 315.953125 400.832031 C 315.953125 399.820312 315.953125 398.804688 315.957031 397.792969 C 315.957031 397.089844 315.957031 396.390625 315.953125 395.6875 C 315.953125 394.214844 315.957031 392.746094 315.957031 391.273438 C 315.957031 389.382812 315.957031 387.492188 315.957031 385.597656 C 315.953125 384.152344 315.953125 382.703125 315.957031 381.253906 C 315.957031 380.554688 315.957031 379.859375 315.953125 379.160156 C 315.953125 378.1875 315.953125 377.214844 315.957031 376.242188 L 315.953125 375.359375 C 315.957031 374.683594 315.976562 374.007812 316 373.332031 Z M 375 373 L 381 373 C 382.289062 374.097656 383.042969 374.777344 383.945312 376.105469 C 384.484375 376.886719 385.074219 377.617188 385.664062 378.355469 C 386.128906 378.945312 386.589844 379.535156 387.046875 380.125 C 388.175781 381.570312 389.371094 382.953125 390.570312 384.335938 C 391.78125 385.738281 392.957031 387.167969 394.101562 388.625 C 394.613281 389.261719 395.132812 389.886719 395.667969 390.5 L 396.332031 391.332031 L 396.332031 392 L 397 392 L 397 373 L 404.332031 373 L 404.332031 405 L 398 405 C 396.601562 403.820312 395.9375 403.128906 395 401.667969 C 394.597656 401.15625 394.1875 400.648438 393.769531 400.144531 L 393.121094 399.320312 C 392.101562 398.042969 391.0625 396.78125 390.019531 395.519531 L 388.804688 394.046875 L 388.214844 393.332031 C 387.234375 392.140625 386.257812 390.945312 385.28125 389.746094 C 384.742188 389.097656 384.199219 388.453125 383.644531 387.8125 L 383 387 L 383 386.332031 L 382.332031 386.332031 L 382.332031 405 L 375 405 Z M 442.667969 373 L 450.5 372.917969 L 452.9375 372.878906 C 457.25 372.839844 461.554688 372.8125 465.441406 374.941406 C 467.332031 376.160156 468.589844 377.558594 469.640625 379.542969 C 470.671875 381.804688 470.878906 383.875 470.667969 386.332031 C 470.289062 388.453125 469.496094 390.230469 468.25 391.984375 C 467.320312 393.074219 466.246094 393.953125 465 394.667969 L 464.332031 394.667969 C 465.601562 397.011719 467.152344 399.132812 468.710938 401.292969 L 469.328125 402.160156 L 469.886719 402.941406 C 470.320312 403.640625 470.519531 404.195312 470.667969 405 C 469.4375 405.085938 468.210938 405.140625 466.980469 405.1875 L 465.929688 405.261719 C 464.878906 405.292969 464.015625 405.265625 463 405 C 461.96875 404.148438 461.34375 403.144531 460.667969 402 C 460.347656 401.519531 460.027344 401.042969 459.707031 400.5625 C 459.253906 399.871094 458.804688 399.175781 458.367188 398.476562 C 457.9375 397.828125 457.527344 397.234375 457 396.667969 C 455.949219 396.15625 455.949219 396.15625 455 396 C 454.992188 395.171875 454.984375 394.347656 454.980469 393.519531 L 454.972656 392.808594 C 454.96875 392.203125 454.984375 391.601562 455 391 L 455.332031 390.667969 C 455.964844 390.566406 456.597656 390.480469 457.230469 390.394531 C 458.503906 390.191406 459.359375 389.988281 460.519531 389.394531 C 461.53125 388.488281 462.097656 387.644531 462.5625 386.375 C 462.761719 385.03125 462.773438 383.78125 462.457031 382.457031 C 461.808594 381.335938 461.046875 380.769531 460 380 C 456.832031 378.941406 453.339844 379.457031 450 379.332031 L 450 405 L 442.667969 405 Z M 412 373 L 423.980469 372.980469 L 427.765625 372.96875 C 429.289062 372.96875 429.289062 372.96875 430 372.96875 C 430.5 372.96875 431 372.964844 431.496094 372.964844 C 432.25 372.960938 433.003906 372.960938 433.757812 372.960938 L 435.050781 372.960938 L 436 373 L 436.332031 373.332031 C 436.359375 374.289062 436.363281 375.234375 436.355469 376.1875 L 436.351562 377.003906 C 436.34375 377.667969 436.339844 378.335938 436.332031 379 C 435.519531 379.40625 435 379.375 434.089844 379.371094 L 433.101562 379.371094 L 432.027344 379.367188 L 430.933594 379.363281 C 429.773438 379.363281 428.617188 379.359375 427.457031 379.355469 C 426.675781 379.351562 425.890625 379.351562 425.105469 379.351562 C 423.183594 379.347656 421.257812 379.339844 419.332031 379.332031 L 419.332031 386 L 434 386 C 433.667969 388 433.667969 388 432 392 L 419.332031 392 L 419.332031 399 L 420.851562 398.996094 C 422.707031 398.988281 424.5625 398.984375 426.417969 398.980469 C 427.222656 398.980469 428.023438 398.976562 428.828125 398.976562 C 429.980469 398.972656 431.136719 398.96875 432.289062 398.96875 L 433.382812 398.960938 L 435.285156 398.960938 C 436 399 436 399 436.667969 399.332031 L 436.667969 405 L 412 405 Z M 412 373 "/><path style=" stroke:none;fill-rule:nonzero;fill:#c19a20;fill-opacity:1;" d="M 176.332031 373 C 176.878906 372.972656 177.425781 372.960938 177.96875 372.96875 L 178.96875 372.96875 L 180.019531 372.980469 L 181.078125 372.984375 C 181.941406 372.988281 182.804688 372.992188 183.667969 373 L 183.671875 373.730469 C 183.683594 376.027344 183.703125 378.320312 183.726562 380.617188 C 183.742188 381.796875 183.75 382.972656 183.757812 384.152344 C 183.761719 385.515625 183.78125 386.875 183.796875 388.234375 L 183.796875 389.496094 C 183.84375 392.179688 184.210938 394.542969 185.332031 397 C 186.152344 397.90625 186.789062 398.230469 187.875 398.75 C 189.78125 399.171875 191.597656 399.230469 193.511719 398.816406 C 194.355469 398.519531 194.964844 398.21875 195.667969 397.667969 C 196.769531 396.148438 197.347656 394.609375 197.597656 392.757812 C 197.753906 391.050781 197.75 389.332031 197.773438 387.617188 L 197.792969 386.347656 C 197.8125 385.242188 197.828125 384.136719 197.84375 383.03125 C 197.859375 381.902344 197.878906 380.769531 197.898438 379.640625 C 197.933594 377.425781 197.96875 375.214844 198 373 C 199.160156 372.992188 200.320312 372.984375 201.480469 372.980469 L 202.484375 372.972656 L 203.4375 372.96875 L 204.320312 372.960938 L 205 373 L 205.332031 373.332031 C 205.371094 373.945312 205.382812 374.558594 205.386719 375.175781 L 205.398438 376.367188 L 205.402344 377.671875 L 205.40625 379.011719 C 205.410156 379.949219 205.414062 380.886719 205.414062 381.824219 C 205.414062 383.019531 205.421875 384.210938 205.433594 385.402344 C 205.4375 386.324219 205.441406 387.25 205.441406 388.171875 C 205.441406 388.824219 205.449219 389.472656 205.457031 390.121094 C 205.445312 393.480469 205.023438 396.746094 203.382812 399.730469 C 202.253906 401.503906 200.960938 402.910156 199.121094 403.957031 C 195.605469 405.644531 192.21875 405.953125 188.378906 405.730469 C 186.835938 405.59375 185.4375 405.234375 184 404.667969 L 183.28125 404.398438 C 181.375 403.570312 179.964844 402.273438 178.667969 400.667969 C 176.851562 397.960938 176.15625 394.722656 175.910156 391.507812 C 175.882812 390.335938 175.875 389.164062 175.890625 387.992188 L 175.894531 386.714844 C 175.894531 385.613281 175.902344 384.507812 175.910156 383.402344 C 175.917969 382.496094 175.917969 381.589844 175.921875 380.679688 C 175.921875 379.597656 175.925781 378.515625 175.933594 377.429688 L 175.9375 376.199219 L 175.945312 375.070312 L 175.953125 374.074219 L 176 373.332031 Z M 73.332031 373 C 74.082031 372.925781 74.082031 372.925781 75.003906 372.933594 L 76 372.941406 L 77.042969 372.957031 L 78.09375 372.96875 C 78.949219 372.976562 79.808594 372.984375 80.667969 373 C 81.992188 375.601562 83.242188 378.242188 84.417969 380.917969 L 85.453125 383.261719 L 85.734375 383.898438 C 87.085938 386.953125 88.460938 389.996094 89.832031 393.042969 L 91.703125 397.191406 C 92.378906 398.6875 93.046875 400.1875 93.710938 401.6875 C 93.949219 402.21875 94.191406 402.746094 94.4375 403.269531 C 94.667969 404 94.667969 404 94.515625 404.710938 L 94.332031 405.332031 C 93.242188 405.363281 92.152344 405.378906 91.0625 405.394531 L 90.125 405.421875 L 89.222656 405.429688 L 88.390625 405.445312 C 87.667969 405.332031 87.667969 405.332031 87.105469 404.910156 C 86.632812 404.289062 86.347656 403.722656 86.058594 402.996094 L 85.75 402.230469 L 85.4375 401.4375 L 85.113281 400.632812 C 84.851562 399.976562 84.589844 399.324219 84.332031 398.667969 L 83.273438 398.640625 C 81.976562 398.609375 80.679688 398.578125 79.386719 398.542969 C 78.824219 398.527344 78.261719 398.515625 77.703125 398.5 C 76.894531 398.480469 76.089844 398.460938 75.285156 398.4375 L 74.519531 398.421875 C 72.742188 398.371094 72.742188 398.371094 72 398 C 72.207031 396.804688 72.527344 395.730469 72.980469 394.605469 L 73.320312 393.734375 C 73.667969 393 73.667969 393 74.332031 392.332031 C 75.082031 392.289062 75.082031 392.289062 76.003906 392.339844 L 77 392.394531 L 78.042969 392.457031 L 79.09375 392.515625 C 79.949219 392.5625 80.808594 392.613281 81.667969 392.667969 L 81.375 391.949219 C 80.9375 390.863281 80.5 389.773438 80.0625 388.6875 L 79.605469 387.558594 C 78.78125 385.5 78.007812 383.445312 77.332031 381.332031 L 76.332031 381.332031 L 75.96875 382.5 C 75.15625 384.929688 74.148438 387.28125 73.167969 389.644531 L 72.542969 391.152344 C 72.121094 392.167969 71.699219 393.183594 71.277344 394.195312 C 70.796875 395.355469 70.316406 396.511719 69.839844 397.671875 C 69.429688 398.664062 69.015625 399.65625 68.605469 400.644531 L 68.15625 401.738281 L 67.734375 402.738281 L 67.375 403.605469 C 66.984375 404.359375 66.683594 404.824219 66 405.332031 C 65.316406 405.453125 65.316406 405.453125 64.539062 405.441406 L 63.695312 405.4375 L 62.8125 405.417969 L 61.925781 405.410156 C 59.769531 405.382812 59.769531 405.382812 59 405 C 59.492188 403.433594 60.109375 401.945312 60.78125 400.449219 L 61.109375 399.714844 C 61.460938 398.925781 61.8125 398.140625 62.167969 397.355469 C 62.773438 395.996094 63.378906 394.636719 63.984375 393.28125 C 64.957031 391.101562 65.910156 388.917969 66.855469 386.730469 C 67.90625 384.296875 69 381.878906 70.132812 379.484375 C 70.882812 377.867188 71.566406 376.222656 72.246094 374.578125 C 72.667969 373.667969 72.667969 373.667969 73.332031 373 M 153 373 C 153.75 372.925781 153.75 372.925781 154.667969 372.933594 L 155.664062 372.941406 L 156.707031 372.957031 L 157.757812 372.96875 C 158.617188 372.976562 159.476562 372.984375 160.332031 373 C 161.921875 376.039062 163.285156 379.175781 164.667969 382.3125 C 165.132812 383.363281 165.597656 384.417969 166.0625 385.46875 C 166.890625 387.347656 167.730469 389.21875 168.585938 391.085938 C 169.371094 392.8125 170.144531 394.546875 170.921875 396.277344 C 171.210938 396.921875 171.5 397.5625 171.785156 398.203125 L 172.347656 399.453125 L 172.847656 400.574219 L 173.332031 401.667969 L 173.628906 402.277344 C 173.890625 402.839844 174.117188 403.417969 174.332031 404 C 174.230469 404.8125 174.230469 404.8125 174 405.332031 C 172.910156 405.363281 171.820312 405.378906 170.730469 405.394531 L 169.789062 405.421875 L 168.890625 405.429688 L 168.058594 405.445312 C 167.332031 405.332031 167.332031 405.332031 166.773438 404.90625 C 166.320312 404.316406 166.019531 403.773438 165.726562 403.09375 L 165.414062 402.382812 L 165.105469 401.644531 L 164.78125 400.90625 C 164 399.09375 164 399.09375 164 398.332031 L 152 398.332031 L 151.667969 397 C 151.953125 396.019531 151.953125 396.019531 152.394531 394.957031 L 152.828125 393.894531 C 153.332031 393 153.332031 393 153.933594 392.609375 C 154.777344 392.292969 155.355469 392.285156 156.253906 392.339844 L 157.152344 392.394531 L 158.082031 392.457031 L 159.027344 392.515625 C 159.796875 392.5625 160.566406 392.613281 161.332031 392.667969 C 160.800781 391.328125 160.265625 389.984375 159.730469 388.644531 L 159.273438 387.5 C 158.363281 385.21875 158.363281 385.21875 157.390625 382.960938 C 157 382 157 382 157 381 C 156.21875 381.707031 155.792969 382.320312 155.394531 383.292969 L 155.066406 384.078125 L 154.71875 384.929688 L 154.347656 385.820312 C 154.089844 386.449219 153.828125 387.078125 153.570312 387.707031 C 153.164062 388.6875 152.761719 389.667969 152.355469 390.648438 C 151.6875 392.25 151.023438 393.855469 150.359375 395.460938 C 149.523438 397.488281 148.679688 399.515625 147.832031 401.542969 L 147.390625 402.617188 L 146.988281 403.574219 L 146.648438 404.394531 L 146.332031 405 C 145.535156 405.398438 145.035156 405.371094 144.144531 405.367188 L 143.238281 405.363281 L 142.292969 405.355469 L 141.335938 405.351562 C 140.558594 405.34375 139.777344 405.339844 139 405.332031 L 138.667969 404.332031 C 138.898438 403.59375 138.898438 403.59375 139.28125 402.734375 L 139.707031 401.765625 L 140.167969 400.75 L 140.59375 399.78125 C 141.410156 397.9375 142.257812 396.109375 143.117188 394.28125 C 144.445312 391.449219 145.710938 388.589844 146.980469 385.730469 L 147.648438 384.214844 L 147.988281 383.457031 L 148.652344 381.953125 C 149.242188 380.628906 149.824219 379.304688 150.40625 377.976562 L 150.769531 377.140625 C 151.003906 376.609375 151.234375 376.082031 151.464844 375.550781 C 152.257812 373.742188 152.257812 373.742188 153 373 M 249 373 C 249.546875 372.972656 250.089844 372.960938 250.636719 372.96875 L 251.636719 372.96875 L 252.6875 372.980469 L 253.742188 372.984375 C 254.605469 372.988281 255.46875 372.992188 256.332031 373 C 257.847656 375.964844 259.253906 378.96875 260.625 382 L 261.269531 383.425781 C 263.160156 387.597656 265.023438 391.78125 266.878906 395.96875 L 267.199219 396.695312 C 267.40625 397.160156 267.609375 397.625 267.816406 398.09375 C 268.257812 399.101562 268.722656 400.105469 269.203125 401.101562 L 269.675781 402.074219 L 270.089844 402.898438 C 270.332031 403.667969 270.332031 403.667969 270.207031 404.597656 C 270.105469 404.960938 270.105469 404.960938 270 405.332031 C 268.910156 405.363281 267.820312 405.378906 266.730469 405.394531 L 265.789062 405.421875 L 264.890625 405.429688 L 264.058594 405.445312 C 263.332031 405.332031 263.332031 405.332031 262.773438 404.910156 C 262.300781 404.289062 262.015625 403.722656 261.726562 402.996094 L 261.414062 402.230469 L 261.105469 401.4375 L 260.78125 400.632812 C 260.519531 399.976562 260.257812 399.324219 260 398.667969 L 258.941406 398.640625 C 257.644531 398.609375 256.347656 398.578125 255.050781 398.542969 C 254.492188 398.527344 253.929688 398.515625 253.367188 398.5 C 252.5625 398.480469 251.757812 398.460938 250.949219 398.4375 L 250.1875 398.421875 C 248.410156 398.371094 248.410156 398.371094 247.667969 398 C 247.804688 397.554688 247.941406 397.109375 248.082031 396.667969 L 248.316406 395.917969 C 248.785156 394.683594 249.410156 393.511719 250 392.332031 L 257.332031 392.667969 C 256.191406 389.582031 255.027344 386.523438 253.726562 383.5 C 253.308594 382.5 253 381.761719 253 380.667969 L 252.332031 380.667969 C 252.203125 381.078125 252.070312 381.492188 251.933594 381.917969 C 251.285156 383.863281 250.511719 385.75 249.730469 387.644531 L 249.257812 388.800781 C 248.726562 390.089844 248.199219 391.378906 247.667969 392.667969 L 247.359375 393.410156 L 246.078125 396.519531 C 245.554688 397.792969 245.027344 399.066406 244.503906 400.339844 L 243.925781 401.738281 L 243.65625 402.390625 C 243.300781 403.253906 242.960938 404.113281 242.667969 405 C 241.867188 405.398438 241.367188 405.371094 240.476562 405.367188 L 239.570312 405.363281 L 238.625 405.355469 L 237.671875 405.351562 C 236.890625 405.34375 236.113281 405.339844 235.332031 405.332031 C 235.101562 404.660156 235.101562 404.660156 235 403.667969 C 235.308594 402.796875 235.660156 401.945312 236.0625 401.117188 L 236.410156 400.371094 C 236.777344 399.585938 237.148438 398.804688 237.519531 398.019531 C 237.882812 397.25 238.242188 396.480469 238.601562 395.710938 C 238.839844 395.203125 239.078125 394.695312 239.316406 394.1875 C 240.210938 392.285156 241.046875 390.363281 241.863281 388.429688 C 242.484375 386.980469 243.148438 385.550781 243.816406 384.121094 C 244.375 382.910156 244.921875 381.691406 245.464844 380.472656 L 245.75 379.835938 C 246.132812 378.976562 246.515625 378.113281 246.898438 377.25 C 247.183594 376.609375 247.46875 375.96875 247.757812 375.328125 L 248.261719 374.191406 C 248.667969 373.332031 248.667969 373.332031 249 373 M 295.089844 374.3125 C 295.667969 374.667969 295.667969 374.667969 296.667969 375.667969 L 294.667969 380.667969 C 293.171875 380.417969 292.273438 380.195312 290.9375 379.644531 C 289.0625 379.003906 287.335938 378.851562 285.375 378.832031 L 284.558594 378.816406 C 283.179688 378.828125 282.425781 378.949219 281.183594 379.613281 C 280.285156 380.308594 280.285156 380.308594 279.667969 381.332031 C 279.65625 382.023438 279.65625 382.023438 279.792969 382.730469 L 280 384 C 282.265625 384.773438 284.542969 385.472656 286.863281 386.054688 L 287.699219 386.265625 C 288.246094 386.40625 288.796875 386.539062 289.347656 386.675781 C 291.910156 387.320312 294.191406 388.300781 296.152344 390.109375 C 297.066406 391.101562 297.640625 392.023438 298 393.332031 C 298.261719 395.449219 298.191406 397.4375 297.480469 399.457031 C 296.722656 401.082031 295.785156 402.28125 294.332031 403.332031 C 291.472656 404.960938 288.550781 405.738281 285.269531 405.777344 L 284.4375 405.769531 L 283.558594 405.765625 C 279.605469 405.695312 275.855469 404.859375 272.332031 403 C 271.722656 402.449219 271.722656 402.449219 271.332031 402 C 271.882812 400.105469 272.761719 398.410156 273.667969 396.667969 C 274.816406 396.910156 275.824219 397.339844 276.894531 397.8125 C 280.183594 399.183594 283.085938 399.601562 286.667969 399.332031 C 287.734375 399.132812 288.738281 398.914062 289.667969 398.332031 C 290.117188 397.601562 290.328125 397.03125 290.5 396.1875 L 290.332031 395.332031 C 289.398438 394.285156 288.660156 393.78125 287.328125 393.316406 C 286.097656 392.976562 284.863281 392.65625 283.625 392.355469 C 276.605469 390.628906 276.605469 390.628906 274.085938 388.511719 C 273.097656 387.40625 272.335938 386.113281 272 384.667969 C 271.78125 382.585938 271.757812 380.625 272.5625 378.667969 C 273.199219 377.445312 273.949219 376.566406 275 375.667969 L 275.855469 374.8125 C 277.601562 373.378906 279.980469 372.890625 282.144531 372.417969 C 286.613281 372.101562 290.972656 372.398438 295.089844 374.3125 "/><path style=" stroke:none;fill-rule:nonzero;fill:#1c702e;fill-opacity:1;" d="M 525.890625 372.28125 C 530.035156 372.152344 533.96875 373.152344 537.667969 375 C 537.472656 376.496094 537.078125 377.742188 536.480469 379.125 C 536.328125 379.476562 536.175781 379.832031 536.019531 380.195312 L 535.667969 381 C 534.835938 380.667969 534.003906 380.335938 533.183594 379.976562 C 531.023438 379.125 529.03125 378.859375 526.730469 378.832031 L 525.921875 378.816406 C 524.554688 378.828125 523.539062 378.972656 522.328125 379.636719 C 521.324219 380.222656 521.324219 380.222656 521 381 C 520.859375 381.972656 520.859375 381.972656 521 383 C 521.636719 383.773438 522.171875 384.257812 523.082031 384.683594 L 523.957031 384.957031 L 525.015625 385.292969 C 526.042969 385.59375 527.082031 385.859375 528.121094 386.125 L 529.089844 386.375 C 529.722656 386.539062 530.359375 386.695312 530.996094 386.847656 C 533.460938 387.476562 535.445312 388.5 537.292969 390.265625 C 538.164062 391.183594 538.652344 391.960938 539.125 393.144531 C 539.527344 395.433594 539.429688 397.316406 538.695312 399.515625 C 538.054688 400.960938 537.21875 401.996094 536 403 C 533.289062 404.699219 530.554688 405.628906 527.363281 405.777344 C 522.21875 405.867188 517.957031 405.195312 513.355469 402.722656 L 512.667969 402.332031 C 512.886719 400.980469 513.316406 399.820312 513.855469 398.5625 L 514.3125 397.484375 L 514.667969 396.667969 C 515.964844 396.878906 517.050781 397.277344 518.25 397.8125 C 521.546875 399.199219 524.40625 399.542969 528 399.332031 C 529.113281 399.167969 530 398.859375 530.980469 398.292969 C 531.421875 397.59375 531.421875 397.59375 531.5625 396.375 C 531.558594 395.660156 531.558594 395.660156 531.332031 395 C 530.34375 394.015625 529.066406 393.464844 527.75 393.035156 C 526.742188 392.773438 525.726562 392.53125 524.707031 392.3125 C 517.945312 390.792969 517.945312 390.792969 515.6875 388.730469 C 514.816406 387.894531 514.28125 387.242188 513.667969 386.1875 C 513.125 384.253906 512.847656 382.496094 513.1875 380.5 C 513.652344 378.75 514.472656 377.351562 515.667969 376 C 517.660156 374.226562 519.730469 373.207031 522.332031 372.667969 C 523.535156 372.453125 524.675781 372.351562 525.890625 372.28125 "/><path style=" stroke:none;fill-rule:nonzero;fill:#c19a20;fill-opacity:1;" d="M 208.667969 373 C 209.527344 372.96875 210.382812 372.957031 211.246094 372.960938 L 212.0625 372.960938 C 212.957031 372.960938 213.855469 372.964844 214.75 372.96875 L 216.609375 372.96875 C 218.246094 372.96875 219.878906 372.972656 221.515625 372.976562 C 223.179688 372.980469 224.847656 372.980469 226.515625 372.984375 C 229.789062 372.988281 233.0625 372.992188 236.332031 373 C 236.40625 373.929688 236.476562 374.859375 236.542969 375.792969 L 236.605469 376.59375 C 236.652344 377.285156 236.664062 377.976562 236.667969 378.667969 L 236 379.332031 C 235.035156 379.410156 235.035156 379.410156 233.820312 379.398438 L 232.503906 379.390625 L 231.125 379.375 C 230.664062 379.371094 230.199219 379.367188 229.738281 379.367188 C 228.601562 379.359375 227.46875 379.347656 226.332031 379.332031 L 226.335938 380.289062 C 226.351562 383.261719 226.359375 386.234375 226.367188 389.207031 C 226.371094 390.738281 226.375 392.265625 226.382812 393.792969 C 226.390625 395.265625 226.394531 396.742188 226.398438 398.214844 C 226.398438 398.777344 226.398438 399.339844 226.402344 399.90625 C 226.410156 400.691406 226.410156 401.476562 226.410156 402.265625 L 226.417969 402.976562 C 226.414062 403.539062 226.375 404.105469 226.332031 404.667969 L 225.667969 405.332031 C 225.019531 405.414062 225.019531 405.414062 224.238281 405.410156 L 223.390625 405.410156 L 222.5 405.394531 L 221.609375 405.394531 C 219.425781 405.378906 219.425781 405.378906 218.667969 405 L 218.667969 379.332031 L 209 379.332031 L 208.332031 379 C 208.324219 378.0625 208.316406 377.125 208.3125 376.1875 L 208.304688 375.378906 C 208.300781 374.695312 208.316406 374.015625 208.332031 373.332031 Z M 208.667969 373 "/><path style=" stroke:none;fill-rule:nonzero;fill:#fefefe;fill-opacity:1;" d="M 496.125 379.5 C 497.867188 380.316406 499.167969 381.472656 500.332031 383 C 501.425781 384.902344 501.933594 386.699219 502.082031 388.875 C 502.050781 391.070312 501.4375 393.171875 500.417969 395.105469 C 499.070312 396.710938 497.710938 397.90625 495.792969 398.792969 C 493.765625 399.523438 491.792969 399.597656 489.667969 399.332031 C 488.570312 399.023438 487.644531 398.585938 486.667969 398 L 486.011719 397.609375 C 484.644531 396.71875 483.785156 395.792969 483 394.332031 C 481.984375 392.210938 481.828125 390.148438 481.882812 387.8125 C 482.082031 385.847656 482.699219 384.316406 483.761719 382.667969 C 484.980469 381.085938 486.515625 380.132812 488.332031 379.332031 C 490.734375 378.542969 493.761719 378.667969 496.125 379.5 "/><path style=" stroke:none;fill-rule:nonzero;fill:#1c702e;fill-opacity:1;" d="M 360 373 L 367.332031 373 L 367.332031 405 L 360 405 Z M 360 373 "/><path style=" stroke:none;fill-rule:nonzero;fill:#1aa42e;fill-opacity:1;" d="M 367.332031 137 C 368.667969 137.007812 369.863281 137.09375 371.066406 137.707031 C 372.507812 138.71875 373.480469 139.859375 374.394531 141.355469 C 374.667969 142 374.667969 142 374.667969 143.332031 L 374 143.332031 L 373.730469 144.222656 C 373.347656 145.292969 372.902344 146.136719 372.300781 147.097656 L 371.667969 148.117188 L 370.980469 149.207031 C 370.617188 149.789062 370.253906 150.371094 369.890625 150.957031 C 369.640625 151.359375 369.390625 151.765625 369.136719 152.167969 C 367.921875 154.117188 366.726562 156.082031 365.535156 158.046875 C 365.1875 158.625 364.835938 159.203125 364.484375 159.78125 C 363.371094 161.613281 362.261719 163.453125 361.160156 165.292969 C 360.640625 166.152344 360.121094 167.015625 359.601562 167.878906 C 359.355469 168.289062 359.109375 168.699219 358.863281 169.113281 C 358.523438 169.683594 358.179688 170.253906 357.835938 170.824219 L 357.25 171.804688 C 356.679688 172.648438 356.074219 173.3125 355.332031 174 L 355 173.332031 C 355.203125 172.589844 355.203125 172.589844 355.554688 171.648438 L 355.953125 170.566406 L 356.394531 169.375 C 356.710938 168.515625 357.023438 167.65625 357.332031 166.796875 L 357.582031 166.113281 C 358.515625 163.511719 359.382812 160.894531 360.25 158.269531 C 361.96875 153.070312 363.734375 147.882812 365.515625 142.699219 L 365.808594 141.847656 C 365.988281 141.316406 366.171875 140.789062 366.351562 140.261719 C 366.722656 139.183594 367.066406 138.109375 367.332031 137 "/><path style=" stroke:none;fill-rule:nonzero;fill:#a47c03;fill-opacity:1;" d="M 216 251 L 216.667969 251 L 217.042969 252.269531 C 217.292969 253.007812 217.292969 253.007812 217.667969 253.667969 C 218.671875 254.351562 218.671875 254.351562 219.667969 254.667969 C 218.933594 256.441406 218.105469 258.136719 217.207031 259.832031 L 216.773438 260.660156 C 215.453125 263.144531 214.070312 265.589844 212.675781 268.03125 C 211.363281 270.34375 210.089844 272.675781 208.832031 275.019531 C 207.214844 278.035156 205.519531 281.003906 203.742188 283.925781 C 203.003906 285.152344 202.296875 286.34375 201.753906 287.664062 C 201.332031 288.667969 201.332031 288.667969 200.667969 289.332031 L 200.332031 288.332031 C 200.5625 287.636719 200.5625 287.636719 200.953125 286.804688 L 201.402344 285.824219 L 201.917969 284.730469 C 202.289062 283.910156 202.660156 283.09375 203.03125 282.273438 L 203.335938 281.589844 C 204.773438 278.375 206.101562 275.113281 207.4375 271.855469 L 209.472656 266.902344 C 210.925781 263.375 212.390625 259.847656 213.867188 256.328125 L 214.761719 254.183594 L 215.269531 252.972656 C 215.535156 252.324219 215.777344 251.664062 216 251 "/></g></svg>